<svg width="9" height="13" viewBox="0 0 9 13" fill="none" xmlns="http://www.w3.org/2000/svg">
    <path d="M8.85598 0.409034C8.76468 0.256266 8.64173 0.144547 8.4874 0.0736771C8.38911 0.0246641 8.2861 0.000114583 8.17842 0.000114583V0H0.8207C0.713069 0 0.610159 0.0245495 0.511848 0.0735625C0.357421 0.144375 0.23452 0.256237 0.143266 0.408919C0.0520362 0.561602 0.00634766 0.730555 0.00634766 0.915979V11.4582C0.00634766 11.6437 0.0520362 11.8126 0.143266 11.9654C0.23452 12.118 0.357421 12.2299 0.511848 12.3007C0.610061 12.3497 0.713069 12.3742 0.8207 12.3742C1.04076 12.3742 1.2349 12.2842 1.40344 12.1044L4.49959 8.63646L7.59573 12.1045C7.75958 12.2787 7.95381 12.3659 8.1784 12.3659C8.29545 12.3659 8.39843 12.3443 8.48737 12.3006C8.6417 12.2299 8.76465 12.118 8.85595 11.9652C8.94718 11.8125 8.99277 11.6436 8.99277 11.4582V0.916094C8.9928 0.730669 8.94711 0.561716 8.85598 0.409034Z" fill="white"/>
</svg>
