<svg width="12" height="18" viewBox="0 0 12 18" fill="none" xmlns="http://www.w3.org/2000/svg">
    <path fill-rule="evenodd" clip-rule="evenodd" d="M0.0185547 6.48148C0.0185547 3.18329 2.70185 0.5 6.00007 0.5C9.29826 0.5 11.9815 3.18329 11.9816 6.48148C11.9816 10.5746 6.62872 16.5836 6.40081 16.8375C6.18714 17.0755 5.81339 17.0759 5.59933 16.8375C5.37143 16.5836 0.0185547 10.5746 0.0185547 6.48148ZM2.99065 6.48148C2.99065 8.1409 4.34065 9.49094 6.00007 9.49094C7.65946 9.49094 9.00946 8.14094 9.00946 6.48152C9.00946 4.8221 7.65946 3.47206 6.00007 3.47206C4.34068 3.47206 2.99065 4.82206 2.99065 6.48148Z" fill="#E3E7EF"/>
</svg>
