<svg width="12" height="10" viewBox="0 0 12 10" fill="none" xmlns="http://www.w3.org/2000/svg">
    <path fill-rule="evenodd" clip-rule="evenodd" d="M9.7125 0.0339966H2.2875C1.0625 0.0339966 0.0625 0.940973 0.0625 2.05202V7.68661C0.0625 8.79766 1.0625 9.70464 2.2875 9.70464H9.7C10.925 9.70464 11.925 8.79766 11.925 7.68661V2.06336C11.9375 0.940973 10.9375 0.0339966 9.7125 0.0339966ZM9.0875 1.82528C9.5375 1.82528 9.9 2.15405 9.9 2.56219C9.9 2.97033 9.5375 3.29911 9.0875 3.29911C8.6375 3.29911 8.275 2.97033 8.275 2.56219C8.275 2.15405 8.6375 1.82528 9.0875 1.82528ZM2.2875 8.74097H9.7125C10.3375 8.74097 10.8625 8.26481 10.8625 7.68661V7.10842L8.375 4.62557C8.325 4.56888 8.225 4.56888 8.1625 4.62557L6.2875 6.49621C6.2375 6.54155 6.1375 6.49621 6.15 6.42818L6.3875 5.43051C6.3875 5.3965 6.375 5.35115 6.35 5.31714L4.4875 3.37847C4.4125 3.28778 4.2625 3.28778 4.175 3.37847L1.1375 6.53022V7.69795C1.1375 8.27615 1.65 8.74097 2.2875 8.74097Z" fill="white"/>
</svg>
