<svg width="12" height="12" viewBox="0 0 12 12" fill="none" xmlns="http://www.w3.org/2000/svg">
    <path d="M5.50719 0.267831C5.58456 0.111576 5.74387 0.0125122 5.918 0.0125122C6.09213 0.0125122 6.2517 0.111576 6.32881 0.267831L7.80226 3.25379C7.8689 3.38885 7.99809 3.48255 8.14745 3.50426L11.4426 3.98298C11.6154 4.008 11.7584 4.12902 11.8123 4.29472C11.8662 4.46043 11.8212 4.64272 11.6964 4.76426L9.31221 7.08868C9.20422 7.19387 9.15494 7.34553 9.18021 7.49413L9.74294 10.7763C9.77204 10.9483 9.70183 11.122 9.56038 11.2246C9.41919 11.3267 9.23256 11.3403 9.07783 11.2596L6.13043 9.70979C5.99715 9.63958 5.83758 9.63958 5.70404 9.70979L2.75664 11.2593C2.60243 11.3403 2.41528 11.327 2.27409 11.2246C2.1329 11.1222 2.06243 10.9483 2.09179 10.7763L2.65451 7.49413C2.68004 7.34553 2.63051 7.19387 2.52251 7.08868L0.138343 4.76426C0.0134916 4.64247 -0.0314446 4.46043 0.0224278 4.29472C0.0763001 4.12902 0.219534 4.008 0.392385 3.98298L3.68804 3.50426C3.83715 3.48255 3.96634 3.38885 4.03298 3.25353L5.50719 0.267831Z" fill="white"/>
</svg>
