<svg width="14" height="8" viewBox="0 0 14 8" fill="none" xmlns="http://www.w3.org/2000/svg">
    <path d="M7.00296 5.30736L1.76537 0.229952C1.6215 0.0901456 1.42914 0.0132351 1.22403 0.0132351C1.01881 0.0132351 0.826569 0.0901456 0.682472 0.229952L0.223772 0.674863C0.0794472 0.814449 0 1.00104 0 1.19988C0 1.39873 0.0794472 1.5851 0.223772 1.72479L6.45958 7.77026C6.60413 7.9105 6.79728 7.9873 7.00262 7.98675C7.20886 7.9873 7.40179 7.91061 7.54646 7.77026L13.7762 1.73042C13.9206 1.59072 14 1.40435 14 1.2054C14 1.00656 13.9206 0.820187 13.7762 0.68038L13.3175 0.23558C13.019 -0.0538549 12.533 -0.0538549 12.2345 0.23558L7.00296 5.30736Z" fill="#B9BDC5"/>
</svg>
