<svg width="11" height="16" viewBox="0 0 11 16" fill="none" xmlns="http://www.w3.org/2000/svg">
    <path fill-rule="evenodd" clip-rule="evenodd" d="M0 4.97997C0 2.23401 2.23401 0 4.98 0C7.72596 0 9.95995 2.23401 9.96 4.97997C9.96 8.3878 5.50339 13.3907 5.31364 13.602C5.13574 13.8001 4.82458 13.8005 4.64636 13.602C4.45661 13.3907 0 8.3878 0 4.97997ZM2.47446 4.97997C2.47446 6.36155 3.59843 7.48554 4.98 7.48554C6.36155 7.48554 7.48551 6.36157 7.48551 4.98C7.48551 3.59843 6.36155 2.47444 4.98 2.47444C3.59845 2.47444 2.47446 3.5984 2.47446 4.97997Z" fill="#B9BDC5"/>
</svg>
