<svg width="16" height="23" viewBox="0 0 16 23" fill="none" xmlns="http://www.w3.org/2000/svg">
    <path fill-rule="evenodd" clip-rule="evenodd" d="M15.1002 0.136944C15.375 0.268671 15.5939 0.476324 15.7564 0.760276C15.9187 1.04407 16 1.3581 16 1.70275V21.2974C16 21.6421 15.9188 21.9561 15.7564 22.2398C15.5938 22.5239 15.3749 22.7318 15.1002 22.8633C14.9418 22.9444 14.7584 22.9847 14.55 22.9847C14.1502 22.9847 13.8043 22.8225 13.5126 22.4987L8.00004 16.0527L2.48747 22.4985C2.18739 22.8327 1.84173 23 1.44992 23C1.25829 23 1.07489 22.9545 0.900024 22.8634C0.625074 22.7318 0.406252 22.5239 0.243777 22.2402C0.0813467 21.9561 0 21.6422 0 21.2975V1.70254C0 1.35789 0.0813467 1.04385 0.243777 0.760063C0.406252 0.47627 0.625074 0.268351 0.900024 0.136731C1.07506 0.0456304 1.25829 0 1.44992 0H14.5501V0.000212977C14.7418 0.000212977 14.9252 0.0458434 15.1002 0.136944ZM9.11259 14.6541L14.4001 20.8259V1.94603H1.60014V20.8259L6.88759 14.6541L8.00004 13.3622L9.11259 14.6541Z" fill="#B9BDC5"/>
</svg>
