<svg width="24" height="24" viewBox="0 0 24 24" fill="none" xmlns="http://www.w3.org/2000/svg">
    <path fill-rule="evenodd" clip-rule="evenodd" d="M0 12C0 5.34545 5.34545 0 12 0C18.6545 0 24 5.34545 24 12C24 18.6545 18.6545 24 12 24C5.34545 24 0 18.6545 0 12ZM10.2 17.2909L18.9273 8.23636C19.1455 8.01818 19.1455 7.69091 18.9273 7.52727L18.1636 6.76364C17.9455 6.54545 17.6182 6.54545 17.4 6.76364H17.3455L10.0364 14.3455C9.92727 14.4545 9.76364 14.4545 9.65454 14.3455L6.65455 11.1273L6.6 11.0727C6.38182 10.8545 6.05455 10.8545 5.83636 11.0727L5.07273 11.8364C4.96364 11.9455 4.90909 12.1091 4.90909 12.2182C4.90909 12.3273 4.96364 12.4909 5.07273 12.6L5.18182 12.7091L9.43636 17.2909C9.49091 17.4 9.65455 17.4545 9.81818 17.4545C9.98182 17.4545 10.0909 17.4 10.2 17.2909Z" fill="#F93963"/>
</svg>
