<svg width="20" height="18" viewBox="0 0 20 18" fill="none" xmlns="http://www.w3.org/2000/svg">
    <path d="M0.209606 5.87669L5.8609 0.225514C6.00073 0.0856822 6.16623 0.0157471 6.35755 0.0157471C6.54888 0.0157471 6.7145 0.0856822 6.85421 0.225514C6.99405 0.365423 7.06406 0.531001 7.06406 0.722289V3.54788H9.53645C14.7832 3.54788 18.0023 5.03062 19.1945 7.99604C19.5844 8.98194 19.7793 10.2073 19.7793 11.6716C19.7793 12.893 19.312 14.5522 18.3775 16.6494C18.3555 16.701 18.317 16.7892 18.2617 16.9142C18.2065 17.0392 18.1569 17.1496 18.1127 17.2453C18.0684 17.3409 18.0206 17.4218 17.9691 17.488C17.8809 17.6131 17.7778 17.6758 17.6601 17.6758C17.5497 17.6758 17.4632 17.639 17.4006 17.5655C17.3382 17.4919 17.3069 17.3999 17.3069 17.2898C17.3069 17.2233 17.3161 17.126 17.3345 16.9971C17.3529 16.8683 17.3622 16.782 17.3622 16.7378C17.399 16.2376 17.4174 15.7847 17.4174 15.3803C17.4174 14.6372 17.3529 13.9712 17.2243 13.3826C17.0954 12.7938 16.917 12.2844 16.6889 11.8539C16.4607 11.4232 16.1665 11.0519 15.8058 10.7391C15.4453 10.4264 15.0572 10.1708 14.6415 9.97205C14.2257 9.7733 13.7363 9.61692 13.1734 9.50291C12.6105 9.38887 12.044 9.30973 11.4736 9.26554C10.9033 9.22136 10.2576 9.1994 9.53645 9.1994H7.06406V12.0251C7.06406 12.2163 6.9942 12.382 6.85448 12.5217C6.71454 12.6614 6.54904 12.7314 6.35783 12.7314C6.16654 12.7314 6.00092 12.6614 5.8609 12.5217L0.209721 6.87035C0.0698891 6.73052 3.24249e-05 6.56502 3.24249e-05 6.37369C7.05719e-05 6.18241 0.069891 6.01679 0.209606 5.87669Z" fill="#26315F"/>
</svg>
